<svg width="280" height="180" viewBox="0 0 280 180" fill="none" xmlns="http://www.w3.org/2000/svg">
<g clip-path="url(#clip0_9295_1014)">
<rect x="-0.00428286" y="0.742904" width="86.5" height="62.5" rx="5.25" transform="matrix(0.865865 0.500278 -0.871576 0.490261 77.5646 28.657)" fill="#52525B"/>
<rect x="-0.00428286" y="0.742904" width="86.5" height="62.5" rx="5.25" transform="matrix(0.865865 0.500278 -0.871576 0.490261 77.5646 28.657)" stroke="#A1A1AA" stroke-width="1.5"/>
<g clip-path="url(#clip1_9295_1014)">
<rect width="88" height="64" rx="6" transform="matrix(0.865865 0.500278 -0.871576 0.490261 76.9177 25.2762)" fill="#212124"/>
<path d="M27.7324 59.7183L92.0449 96.8766C96.3215 99.3475 103.636 97.4115 103.04 93.9663L98.2409 66.2351C97.3675 61.1886 90.399 57.1624 81.5594 56.5969L32.9842 53.4898C27.0438 53.1098 23.5658 57.1188 27.538 59.6011L27.7324 59.7183Z" fill="#212124" stroke="#A1A1AA" stroke-width="1.5"/>
<path d="M82.2058 29.077L146.518 66.2353C150.795 68.7062 147.301 72.8498 141.267 72.4638L92.6913 69.3567C83.8517 68.7912 76.8833 64.765 76.0099 59.7185L71.2109 31.9872C70.6241 28.5959 77.7022 26.667 82.0029 28.9646L82.2058 29.077Z" fill="#3F3F46" stroke="#A1A1AA" stroke-width="1.5"/>
</g>
<rect x="-0.00428286" y="0.742904" width="86.5" height="62.5" rx="5.25" transform="matrix(0.865865 0.500278 -0.871576 0.490261 77.5646 25.657)" stroke="#A1A1AA" stroke-width="1.5"/>
<rect x="-0.00428286" y="0.742904" width="86.5" height="62.5" rx="5.25" transform="matrix(0.865865 0.500278 -0.871576 0.490261 174.541 84.688)" fill="#52525B"/>
<rect x="-0.00428286" y="0.742904" width="86.5" height="62.5" rx="5.25" transform="matrix(0.865865 0.500278 -0.871576 0.490261 174.541 84.688)" stroke="#A1A1AA" stroke-width="1.5"/>
<path d="M172.861 87.9155L238.486 125.832C242.783 128.315 250.128 126.347 249.474 122.889L243.296 90.1832C242.849 87.8201 239.591 85.9376 235.452 85.6514L178.171 81.6912C172.113 81.2724 168.565 85.4328 172.861 87.9155Z" fill="#3F3F46" stroke="#A1A1AA" stroke-width="1.5"/>
<path d="M231.731 129.631L166.107 91.7151C161.196 88.8777 165.251 84.1228 172.174 84.6014L234.339 88.8993C236.052 89.0177 237.4 89.7965 237.584 90.7744L244.29 126.268C245.036 130.221 236.642 132.469 231.731 129.631Z" fill="#212124"/>
<g clip-path="url(#clip2_9295_1014)">
<rect width="88" height="64" rx="6" transform="matrix(0.865865 0.500278 -0.871576 0.490261 173.895 81.3071)" fill="#212124"/>
<path d="M179.183 85.1079L243.495 122.266C247.772 124.737 244.278 128.881 238.243 128.495L181.705 124.878C177.502 124.61 174.188 122.695 173.773 120.296L168.188 88.0182C167.601 84.6268 174.679 82.698 178.98 84.9955L179.183 85.1079Z" fill="#52525B" stroke="#A1A1AA" stroke-width="1.5"/>
</g>
<rect x="-0.00428286" y="0.742904" width="86.5" height="62.5" rx="5.25" transform="matrix(0.865865 0.500278 -0.871576 0.490261 174.541 81.688)" stroke="#A1A1AA" stroke-width="1.5"/>
<mask id="mask0_9295_1014" style="mask-type:alpha" maskUnits="userSpaceOnUse" x="168" y="45" width="177" height="86">
<path d="M171.997 83.2966C172.876 81.4354 196.349 54.2985 200.384 54.5775L231.766 45.9399C236.333 46.2556 311.304 92.5213 311.797 95.1289L344.516 129.687C344.952 131.991 249.852 125.911 246.576 126.387C245.149 127.512 242.755 128.248 239.844 128.062L183.304 124.446C178.667 124.149 175.011 122.037 174.553 119.39L168.968 87.1116C168.68 85.4496 170.004 84.0949 171.997 83.2966Z" fill="#212124"/>
</mask>
<g mask="url(#mask0_9295_1014)">
<rect x="-0.140468" y="0.738049" width="76.5" height="62.5" rx="5.25" transform="matrix(0.770017 0.548783 -0.957308 0.435282 198.604 75.8911)" fill="#27272A" stroke="#A1A1AA" stroke-width="1.5"/>
<path d="M220.299 113.644L231.849 121.876" stroke="#71717A" stroke-width="1.5" stroke-linecap="round" stroke-linejoin="round"/>
<path d="M227.531 112.778C226.524 110.606 230.542 109.298 232.524 111.112C234.196 112.642 229.888 116.106 225.184 117.871C224.214 118.235 222.521 118.704 221.289 118.07C220.368 117.596 219.986 116.822 220.544 116.16C222.74 113.682 232.948 114.292 233.535 115.987C233.849 116.896 231.319 117.384 231.834 117.976C232.207 118.406 233.839 118.102 234.163 118.506C234.463 118.881 233.523 119.214 233.829 119.624C233.965 119.807 234.208 119.949 234.513 119.967" stroke="#71717A" stroke-width="1.5" stroke-linecap="round" stroke-linejoin="round"/>
<rect width="28" height="3" rx="1.5" transform="matrix(0.770017 0.548783 -0.957309 0.435282 187.931 88.8887)" fill="#52525B"/>
<rect width="8" height="3" rx="1.5" transform="matrix(0.770017 0.548783 -0.957309 0.435282 211.801 105.901)" fill="#52525B"/>
<rect width="16" height="3" rx="1.5" transform="matrix(0.770017 0.548783 -0.957309 0.435282 164.955 99.3355)" fill="#52525B"/>
<rect width="26" height="3" rx="1.5" transform="matrix(0.770017 0.548783 -0.957309 0.435282 172.614 95.8533)" fill="#52525B"/>
<rect width="32" height="3" rx="1.5" transform="matrix(0.770017 0.548783 -0.957309 0.435282 191.823 100.603)" fill="#52525B"/>
<rect width="12" height="3" rx="1.5" transform="matrix(0.770017 0.548783 -0.957309 0.435282 180.272 92.371)" fill="#52525B"/>
<rect width="16" height="3" rx="1.5" transform="matrix(0.770017 0.548783 -0.957309 0.435282 204.954 118.902)" fill="#52525B"/>
<rect width="10" height="3" rx="1.5" transform="matrix(0.770017 0.548783 -0.957309 0.435282 194.944 111.768)" fill="#52525B"/>
<rect width="32" height="3" rx="1.5" transform="matrix(0.770017 0.548783 -0.957309 0.435282 195.589 85.4065)" fill="#52525B"/>
</g>
<path d="M124.709 115.749L189.022 152.908C193.298 155.378 200.613 153.442 200.017 149.997L194.431 117.72C194.016 115.321 190.702 113.406 186.5 113.137L129.961 109.521C124.021 109.141 120.543 113.15 124.515 115.632L124.709 115.749Z" fill="#212124" stroke="#A1A1AA" stroke-width="1.5"/>
</g>
<defs>
<clipPath id="clip0_9295_1014">
<rect width="280" height="180" fill="white"/>
</clipPath>
<clipPath id="clip1_9295_1014">
<rect width="88" height="64" rx="6" transform="matrix(0.865865 0.500278 -0.871576 0.490261 76.9177 25.2762)" fill="white"/>
</clipPath>
<clipPath id="clip2_9295_1014">
<rect width="88" height="64" rx="6" transform="matrix(0.865865 0.500278 -0.871576 0.490261 173.895 81.3071)" fill="white"/>
</clipPath>
</defs>
</svg>
