<svg width="280" height="180" viewBox="0 0 280 180" fill="none" xmlns="http://www.w3.org/2000/svg">
<g clip-path="url(#clip0_8945_4283)">
<rect x="0.00428286" y="-0.742904" width="105.5" height="81.5" rx="6.75" transform="matrix(0.865865 0.500278 -0.871576 0.490261 70.573 10.6043)" fill="#52525B" stroke="#A1A1AA" stroke-width="1.5"/>
<rect width="16" height="3" rx="1.5" transform="matrix(0.865865 0.500278 -0.871576 0.490261 64.179 26.7938)" fill="#52525B"/>
<rect width="6" height="3" rx="1.5" transform="matrix(0.865865 0.500278 -0.871576 0.490261 71.9431 36.249)" fill="#52525B"/>
<rect width="10" height="3" rx="1.5" transform="matrix(0.865865 0.500278 -0.871576 0.490261 30.1875 45.914)" fill="#A1A1AA"/>
<rect width="8" height="3" rx="1.5" transform="matrix(0.865865 0.500278 -0.871576 0.490261 40.5779 51.9174)" fill="#52525B"/>
<rect x="0.00428286" y="-0.742904" width="41.5" height="57.5" rx="8.75" transform="matrix(0.865865 0.500278 -0.871576 0.490261 105.139 42.5019)" fill="#27272A" stroke="#52525B" stroke-width="1.5"/>
<path d="M73.3618 16.198C72.6455 15.7842 71.4766 15.7774 70.7556 16.183C70.0346 16.5886 70.0308 17.2549 70.7471 17.6688C71.4633 18.0827 72.6322 18.0894 73.3532 17.6838C74.0742 17.2783 74.0781 16.6119 73.3618 16.198Z" fill="#52525B"/>
<path d="M77.6911 18.6994C76.9748 18.2855 75.806 18.2788 75.085 18.6844C74.364 19.0899 74.3601 19.7563 75.0764 20.1702C75.7927 20.584 76.9616 20.5908 77.6826 20.1852C78.4036 19.7796 78.4074 19.1132 77.6911 18.6994Z" fill="#52525B"/>
<path d="M82.0205 21.2008C81.3042 20.7869 80.1353 20.7802 79.4143 21.1858C78.6933 21.5913 78.6895 22.2577 79.4058 22.6716C80.122 23.0854 81.2909 23.0922 82.0119 22.6866C82.7329 22.281 82.7368 21.6146 82.0205 21.2008Z" fill="#52525B"/>
<rect x="0.00428286" y="-0.742904" width="105.5" height="81.5" rx="6.75" transform="matrix(0.865865 0.500278 -0.871576 0.490261 70.573 7.60431)" fill="#212124" stroke="#A1A1AA" stroke-width="1.5"/>
<rect width="12" height="3" rx="1.5" transform="matrix(0.865865 0.500278 -0.871576 0.490261 59.821 26.2451)" fill="#52525B"/>
<rect width="16" height="3" rx="1.5" transform="matrix(0.865865 0.500278 -0.871576 0.490261 64.179 23.7938)" fill="#52525B"/>
<rect width="6" height="3" rx="1.5" transform="matrix(0.865865 0.500278 -0.871576 0.490261 71.9431 33.249)" fill="#52525B"/>
<rect width="10" height="3" rx="1.5" transform="matrix(0.865865 0.500278 -0.871576 0.490261 30.1875 42.914)" fill="#A1A1AA"/>
<rect width="8" height="3" rx="1.5" transform="matrix(0.865865 0.500278 -0.871576 0.490261 40.5779 48.9173)" fill="#52525B"/>
<rect x="0.00428286" y="-0.742904" width="41.5" height="57.5" rx="8.75" transform="matrix(0.865865 0.500278 -0.871576 0.490261 105.139 39.5019)" fill="#27272A" stroke="#52525B" stroke-width="1.5"/>
<path d="M73.3618 13.198C72.6455 12.7841 71.4766 12.7774 70.7556 13.183C70.0346 13.5885 70.0308 14.2549 70.7471 14.6688C71.4633 15.0826 72.6322 15.0894 73.3532 14.6838C74.0742 14.2782 74.0781 13.6118 73.3618 13.198Z" fill="#52525B"/>
<path d="M77.6911 15.6994C76.9748 15.2855 75.806 15.2788 75.085 15.6843C74.364 16.0899 74.3601 16.7563 75.0764 17.1701C75.7927 17.584 76.9616 17.5907 77.6826 17.1852C78.4036 16.7796 78.4074 16.1132 77.6911 15.6994Z" fill="#52525B"/>
<path d="M82.0205 18.2008C81.3042 17.7869 80.1353 17.7802 79.4143 18.1857C78.6933 18.5913 78.6895 19.2577 79.4058 19.6715C80.122 20.0854 81.2909 20.0921 82.0119 19.6866C82.7329 19.281 82.7368 18.6146 82.0205 18.2008Z" fill="#52525B"/>
<path d="M39.0723 38.109L56.405 33.6623L58.13 34.659L50.0478 44.4504L48.4243 43.5124L50.7476 40.7978L45.4881 37.759L40.662 39.0274L39.0723 38.109ZM47.3319 37.2715L51.6443 39.7631L53.421 37.6838C54.0018 37.0003 54.685 36.2304 55.8291 34.9698C53.6026 35.6051 52.243 35.9842 51.028 36.3012L47.3319 37.2715Z" fill="#71717A"/>
<path d="M53.8689 46.8134C52.0932 45.7874 51.6849 44.4937 53.4809 43.4835C55.5406 42.3248 57.6739 43.1304 59.7049 44.032C61.6343 44.8848 62.1158 45.2406 62.8052 44.8528L62.8904 44.8049C63.8692 44.2544 63.8484 43.4368 62.597 42.7138C61.354 41.9956 59.8021 41.8851 58.8407 42.3487L57.3779 41.5035C59.0967 40.6234 61.7598 40.7742 63.8737 41.9956C65.9538 43.1974 66.0898 44.6251 64.3109 45.6257L58.1146 49.1112L56.694 48.2904L57.9707 47.5722L57.9369 47.5527C56.9603 47.726 55.4924 47.7514 53.8689 46.8134ZM55.3656 46.2029C57.1244 47.2191 58.924 47.036 60.0986 46.3753L61.2221 45.7433C60.798 45.7312 59.5624 45.2017 58.3945 44.692C57.2183 44.1773 55.8799 43.8117 54.867 44.3814C54.0244 44.8554 54.2241 45.5434 55.3656 46.2029Z" fill="#71717A"/>
<rect width="120" height="96" rx="14" transform="matrix(0.865865 0.500278 -0.871576 0.490261 182.096 67.0964)" fill="#3F3F46"/>
<rect width="112" height="88" rx="10" transform="matrix(0.865865 0.500278 -0.871576 0.490261 182.073 71.0585)" fill="#212124"/>
<rect x="0.00428286" y="-0.742904" width="105.5" height="81.5" rx="6.75" transform="matrix(0.865865 0.500278 -0.871576 0.490261 181.404 74.6399)" fill="#52525B" stroke="#A1A1AA" stroke-width="1.5"/>
<rect width="12" height="3" transform="matrix(0.865865 0.500278 -0.871576 0.490261 170.652 93.2806)" fill="#52525B"/>
<rect width="16" height="3" transform="matrix(0.865865 0.500278 -0.871576 0.490261 175.01 90.8293)" fill="#52525B"/>
<rect width="6" height="3" transform="matrix(0.865865 0.500278 -0.871576 0.490261 182.774 100.285)" fill="#52525B"/>
<rect width="10" height="3" transform="matrix(0.865865 0.500278 -0.871576 0.490261 141.018 109.95)" fill="#A1A1AA"/>
<rect width="8" height="3" transform="matrix(0.865865 0.500278 -0.871576 0.490261 151.408 115.953)" fill="#52525B"/>
<rect x="0.00428286" y="-0.742904" width="41.5" height="57.5" transform="matrix(0.865865 0.500278 -0.871576 0.490261 215.97 106.537)" fill="#27272A" stroke="#52525B" stroke-width="1.5"/>
<path d="M149.781 105.074C149.542 104.936 149.48 104.834 149.596 104.769C149.712 104.703 149.9 104.725 150.158 104.835L150.569 105.012C150.934 105.171 151.283 105.247 151.617 105.241C151.963 105.228 152.354 105.163 152.791 105.044L167.392 101.057C167.54 101.01 167.663 100.996 167.762 101.013C167.877 101.039 167.966 101.071 168.029 101.108C168.109 101.154 168.163 101.205 168.192 101.261C168.237 101.327 168.217 101.402 168.133 101.486L160.86 109.885C160.646 110.133 160.547 110.334 160.563 110.489C160.578 110.643 160.714 110.821 160.971 111.022L161.277 111.259C161.465 111.408 161.501 111.515 161.385 111.58C161.269 111.645 161.091 111.609 160.852 111.471L156.763 109.108C156.54 108.979 156.492 108.879 156.62 108.807C156.748 108.735 156.953 108.774 157.236 108.924L157.725 109.167C158.019 109.311 158.251 109.371 158.419 109.349C158.603 109.337 158.783 109.235 158.959 109.045L160.752 107.001C160.959 106.775 160.847 106.538 160.417 106.29L157.906 104.839C157.491 104.6 157.077 104.533 156.663 104.638L153.515 105.482C152.613 105.717 152.486 106.061 153.134 106.514L153.458 106.741C153.694 106.917 153.76 107.035 153.655 107.094C153.527 107.166 153.352 107.137 153.128 107.008L149.781 105.074ZM158.357 104.503L160.987 106.023C161.242 106.171 161.445 106.175 161.595 106.036L164.736 102.524L164.616 102.455L158.342 104.157C158.097 104.241 158.102 104.356 158.357 104.503Z" fill="#71717A"/>
<path d="M163.494 113.176C162.824 112.789 162.425 112.386 162.297 111.968C162.18 111.543 162.378 111.186 162.889 110.899C163.389 110.617 164.075 110.477 164.947 110.477C165.83 110.471 166.827 110.583 167.936 110.813C169.046 111.044 170.189 111.373 171.367 111.801C171.62 111.895 171.823 111.899 171.974 111.814L173.56 110.922C174.118 110.608 174.393 110.317 174.387 110.048C174.392 109.773 174.187 109.515 173.772 109.276C173.374 109.045 172.874 108.909 172.271 108.866C171.697 108.825 171.03 108.937 170.271 109.2C169.819 109.364 169.371 109.416 168.925 109.357C168.508 109.301 168.163 109.195 167.892 109.039C167.446 108.781 167.385 108.56 167.711 108.377C168.048 108.188 168.506 108.075 169.087 108.039C169.695 108.006 170.348 108.039 171.045 108.137C171.755 108.229 172.446 108.377 173.119 108.58C173.792 108.783 174.383 109.032 174.893 109.327C176.471 110.239 176.592 111.071 175.256 111.822L169.922 114.823C169.434 115.097 169.357 115.331 169.692 115.525C169.899 115.644 170.189 115.699 170.562 115.69C170.947 115.673 171.383 115.528 171.871 115.253C172.057 115.149 172.254 115.156 172.461 115.276C172.652 115.387 172.649 115.497 172.451 115.609C171.603 116.086 170.78 116.312 169.982 116.289C169.212 116.268 168.571 116.11 168.061 115.815C167.679 115.594 167.486 115.357 167.484 115.104C167.493 114.844 167.615 114.603 167.849 114.38C167.949 114.306 167.935 114.232 167.808 114.158C167.708 114.087 167.544 114.052 167.316 114.053C166.55 114.047 165.869 113.985 165.273 113.866C164.677 113.747 164.084 113.517 163.494 113.176ZM164.941 113.098C165.356 113.337 165.843 113.5 166.403 113.585C166.974 113.663 167.552 113.666 168.135 113.592C168.719 113.518 169.237 113.354 169.69 113.099L170.963 112.383C171.184 112.259 171.08 112.126 170.652 111.985C169.424 111.567 168.313 111.329 167.317 111.271C166.35 111.215 165.552 111.364 164.925 111.717C164.123 112.168 164.128 112.628 164.941 113.098Z" fill="#71717A"/>
<path d="M184.192 80.2335C183.476 79.8197 182.307 79.8129 181.586 80.2185C180.865 80.6241 180.861 81.2904 181.578 81.7043C182.294 82.1181 183.463 82.1249 184.184 81.7193C184.905 81.3137 184.909 80.6474 184.192 80.2335Z" fill="#52525B"/>
<path d="M188.522 82.7349C187.805 82.3211 186.637 82.3143 185.916 82.7199C185.195 83.1255 185.191 83.7918 185.907 84.2057C186.623 84.6196 187.792 84.6263 188.513 84.2207C189.234 83.8152 189.238 83.1488 188.522 82.7349Z" fill="#52525B"/>
<path d="M192.851 85.2363C192.135 84.8225 190.966 84.8157 190.245 85.2213C189.524 85.6269 189.52 86.2932 190.236 86.7071C190.953 87.121 192.121 87.1277 192.842 86.7221C193.563 86.3166 193.567 85.6502 192.851 85.2363Z" fill="#52525B"/>
<rect x="0.00428286" y="-0.742904" width="105.5" height="81.5" rx="6.75" transform="matrix(0.865865 0.500278 -0.871576 0.490261 181.404 71.6399)" fill="#212124" stroke="#A1A1AA" stroke-width="1.5"/>
<rect width="12" height="3" transform="matrix(0.865865 0.500278 -0.871576 0.490261 170.652 90.2806)" fill="#52525B"/>
<rect width="16" height="3" transform="matrix(0.865865 0.500278 -0.871576 0.490261 175.01 87.8293)" fill="#52525B"/>
<rect width="6" height="3" transform="matrix(0.865865 0.500278 -0.871576 0.490261 182.774 97.2845)" fill="#52525B"/>
<rect width="10" height="3" transform="matrix(0.865865 0.500278 -0.871576 0.490261 141.018 106.95)" fill="#A1A1AA"/>
<rect width="8" height="3" transform="matrix(0.865865 0.500278 -0.871576 0.490261 151.408 112.953)" fill="#52525B"/>
<rect x="0.00428286" y="-0.742904" width="41.5" height="57.5" transform="matrix(0.865865 0.500278 -0.871576 0.490261 215.97 103.537)" fill="#27272A" stroke="#52525B" stroke-width="1.5"/>
<path d="M149.781 102.074C149.542 101.936 149.48 101.834 149.596 101.769C149.712 101.703 149.9 101.725 150.158 101.835L150.569 102.012C150.934 102.171 151.283 102.247 151.617 102.241C151.963 102.228 152.354 102.163 152.791 102.044L167.392 98.0573C167.54 98.0104 167.663 97.9955 167.762 98.0128C167.877 98.0392 167.966 98.0709 168.029 98.1077C168.109 98.1537 168.163 98.205 168.192 98.2615C168.237 98.3271 168.217 98.4018 168.133 98.4856L160.86 106.885C160.646 107.133 160.547 107.334 160.563 107.489C160.578 107.643 160.714 107.821 160.971 108.022L161.277 108.259C161.465 108.408 161.501 108.515 161.385 108.58C161.269 108.645 161.091 108.609 160.852 108.471L156.763 106.108C156.54 105.979 156.492 105.879 156.62 105.807C156.748 105.735 156.953 105.774 157.236 105.924L157.725 106.167C158.019 106.311 158.251 106.371 158.419 106.349C158.603 106.337 158.783 106.235 158.959 106.045L160.752 104.001C160.959 103.775 160.847 103.538 160.417 103.29L157.906 101.839C157.491 101.6 157.077 101.533 156.663 101.638L153.515 102.482C152.613 102.717 152.486 103.061 153.134 103.514L153.458 103.741C153.694 103.917 153.76 104.035 153.655 104.094C153.527 104.166 153.352 104.137 153.128 104.008L149.781 102.074ZM158.357 101.503L160.987 103.023C161.242 103.171 161.445 103.175 161.595 103.036L164.736 99.5241L164.616 99.455L158.342 101.157C158.097 101.241 158.102 101.356 158.357 101.503Z" fill="#71717A"/>
<path d="M163.494 110.176C162.824 109.789 162.425 109.386 162.297 108.968C162.18 108.543 162.378 108.186 162.889 107.899C163.389 107.617 164.075 107.477 164.947 107.477C165.83 107.471 166.827 107.583 167.936 107.813C169.046 108.044 170.189 108.373 171.367 108.801C171.62 108.895 171.823 108.899 171.974 108.814L173.56 107.922C174.118 107.608 174.393 107.317 174.387 107.048C174.392 106.773 174.187 106.515 173.772 106.276C173.374 106.045 172.874 105.909 172.271 105.866C171.697 105.825 171.03 105.937 170.271 106.2C169.819 106.364 169.371 106.416 168.925 106.357C168.508 106.301 168.163 106.195 167.892 106.039C167.446 105.781 167.385 105.56 167.711 105.377C168.048 105.188 168.506 105.075 169.087 105.039C169.695 105.006 170.348 105.039 171.045 105.137C171.755 105.229 172.446 105.377 173.119 105.58C173.792 105.783 174.383 106.032 174.893 106.327C176.471 107.239 176.592 108.071 175.256 108.822L169.922 111.823C169.434 112.097 169.357 112.331 169.692 112.525C169.899 112.644 170.189 112.699 170.562 112.69C170.947 112.673 171.383 112.528 171.871 112.253C172.057 112.149 172.254 112.156 172.461 112.276C172.652 112.387 172.649 112.497 172.451 112.609C171.603 113.086 170.78 113.312 169.982 113.289C169.212 113.268 168.571 113.11 168.061 112.815C167.679 112.594 167.486 112.357 167.484 112.104C167.493 111.844 167.615 111.603 167.849 111.38C167.949 111.306 167.935 111.232 167.808 111.158C167.708 111.087 167.544 111.052 167.316 111.053C166.55 111.047 165.869 110.985 165.273 110.866C164.677 110.747 164.084 110.517 163.494 110.176ZM164.941 110.098C165.356 110.337 165.843 110.5 166.403 110.585C166.974 110.663 167.552 110.666 168.135 110.592C168.719 110.518 169.237 110.354 169.69 110.099L170.963 109.383C171.184 109.259 171.08 109.126 170.652 108.985C169.424 108.567 168.313 108.329 167.317 108.271C166.35 108.215 165.552 108.364 164.925 108.717C164.123 109.168 164.128 109.628 164.941 110.098Z" fill="#71717A"/>
<path d="M184.192 77.2335C183.476 76.8197 182.307 76.8129 181.586 77.2185C180.865 77.6241 180.861 78.2904 181.578 78.7043C182.294 79.1181 183.463 79.1249 184.184 78.7193C184.905 78.3137 184.909 77.6474 184.192 77.2335Z" fill="#52525B"/>
<path d="M188.522 79.7349C187.805 79.3211 186.637 79.3143 185.916 79.7199C185.195 80.1255 185.191 80.7918 185.907 81.2057C186.623 81.6196 187.792 81.6263 188.513 81.2207C189.234 80.8152 189.238 80.1488 188.522 79.7349Z" fill="#52525B"/>
<path d="M192.851 82.2363C192.135 81.8225 190.966 81.8157 190.245 82.2213C189.524 82.6269 189.52 83.2932 190.236 83.7071C190.953 84.121 192.121 84.1277 192.842 83.7221C193.563 83.3166 193.567 82.6502 192.851 82.2363Z" fill="#52525B"/>
<g clip-path="url(#clip1_8945_4283)">
<path d="M144.696 150.089L139.934 147.337C138.977 146.785 137.422 146.776 136.459 147.317L131.665 150.014C130.703 150.555 130.698 151.442 131.654 151.995L136.416 154.746C137.373 155.299 138.928 155.308 139.891 154.766L144.685 152.07C145.647 151.528 145.653 150.641 144.696 150.089Z" fill="#A1A1AA" stroke="#A1A1AA" stroke-width="1.5" stroke-linecap="round" stroke-linejoin="round"/>
<path d="M135.788 150.16L135.782 151.647L141.869 151.188" stroke="#212124" stroke-width="1.5" stroke-linecap="round" stroke-linejoin="round"/>
</g>
<g clip-path="url(#clip2_8945_4283)">
<path d="M33.8653 86.0532L29.1031 83.3017C28.1467 82.7491 26.5909 82.7401 25.6282 83.2817L20.8345 85.9781C19.8718 86.5196 19.8667 87.4066 20.8231 87.9592L25.5854 90.7107C26.5418 91.2633 28.0975 91.2723 29.0602 90.7307L33.8539 88.0343C34.8166 87.4928 34.8217 86.6058 33.8653 86.0532Z" fill="#212124" stroke="#A1A1AA" stroke-width="1.5" stroke-linecap="round" stroke-linejoin="round"/>
</g>
</g>
<defs>
<clipPath id="clip0_8945_4283">
<rect width="280" height="180" fill="white"/>
</clipPath>
<clipPath id="clip1_8945_4283">
<rect width="12" height="12" fill="white" transform="matrix(0.865865 0.500278 -0.871576 0.490261 138.209 145.099)"/>
</clipPath>
<clipPath id="clip2_8945_4283">
<rect width="12" height="12" fill="white" transform="matrix(0.865865 0.500278 -0.871576 0.490261 27.3784 81.063)"/>
</clipPath>
</defs>
</svg>
