<svg width="100" height="100" viewBox="0 0 100 100" fill="none" xmlns="http://www.w3.org/2000/svg">
<rect x="14" y="24.2329" width="18.0822" height="58.7671" fill="#B25068" stroke="#333333" stroke-width="0.452055"/>
<path d="M32.0822 24.2329L39.315 17V75.7671L32.0822 83V24.2329Z" fill="#D9D9D9" stroke="#333333" stroke-width="0.452055"/>
<path d="M32.0822 47.7398V24.2329L51.9726 59.4932V83L32.0822 47.7398Z" fill="#B25068" stroke="#333333" stroke-width="0.452055"/>
<path d="M21.6849 17H39.3151L32.0822 24.2329H14L21.6849 17Z" fill="#D9D9D9" stroke="#333333" stroke-width="0.452055"/>
<rect x="51.9725" y="24.2329" width="18.0822" height="58.7671" fill="#B25068" stroke="#333333" stroke-width="0.452055"/>
<path d="M70.0548 24.2329L77.2877 17V75.7671L70.0548 83V24.2329Z" fill="#E7AB79" stroke="#333333" stroke-width="0.452055"/>
<path d="M59.6575 17H77.2876L70.0547 24.2329H51.9725L59.6575 17Z" fill="#D9D9D9" stroke="#333333" stroke-width="0.452055"/>
<path d="M38.863 17.452L51.9726 41.4109V59.4931L32.0822 24.2328L38.863 17.452Z" fill="#D9D9D9" stroke="#333333" stroke-width="0.452055"/>
<path d="M77.2876 56.7808L86.3287 47.7397V66.726L77.2876 75.7671V56.7808Z" fill="#E7AB79" stroke="#333333" stroke-width="0.452055"/>
<path d="M77.2876 48.6439L77.2876 47.7397H86.3287L77.2876 56.7808V48.6439Z" fill="#D9D9D9" stroke="#333333" stroke-width="0.452055"/>
</svg>
