<svg width="50" height="50" viewBox="0 0 50 50" fill="none" xmlns="http://www.w3.org/2000/svg">
<rect width="50" height="50" fill="url(#paint0_linear_1321_3777)"/>
<path d="M27.04 38C26.1013 38 25.2693 37.744 24.544 37.232C23.8187 36.72 23.2533 36.0267 22.848 35.152C22.4427 34.256 22.24 33.232 22.24 32.08V14.608C22.24 14.1387 22.3893 13.7547 22.688 13.456C22.9867 13.1573 23.3707 13.008 23.84 13.008C24.3093 13.008 24.6933 13.1573 24.992 13.456C25.2907 13.7547 25.44 14.1387 25.44 14.608V32.08C25.44 32.8693 25.5893 33.52 25.888 34.032C26.1867 34.544 26.5707 34.8 27.04 34.8H27.84C28.2667 34.8 28.608 34.9493 28.864 35.248C29.1413 35.5467 29.28 35.9307 29.28 36.4C29.28 36.8693 29.0773 37.2533 28.672 37.552C28.2667 37.8507 27.744 38 27.104 38H27.04Z" fill="white"/>
<defs>
<linearGradient id="paint0_linear_1321_3777" x1="50" y1="0" x2="0" y2="50" gradientUnits="userSpaceOnUse">
<stop stop-color="#40E0D0"/>
<stop offset="1" stop-color="#4050E0"/>
</linearGradient>
</defs>
</svg>
