<svg width="50" height="50" viewBox="0 0 50 50" fill="none" xmlns="http://www.w3.org/2000/svg">
<rect width="50" height="50" fill="url(#paint0_linear_1321_3779)"/>
<path d="M28.248 35C27.1813 35 26.2213 34.7333 25.368 34.2C24.5147 33.6453 23.8427 32.8987 23.352 31.96C22.8613 31.0213 22.616 29.9653 22.616 28.792V13.528C22.616 13.0587 22.7653 12.6747 23.064 12.376C23.3627 12.0773 23.7467 11.928 24.216 11.928C24.6853 11.928 25.0693 12.0773 25.368 12.376C25.6667 12.6747 25.816 13.0587 25.816 13.528V28.792C25.816 29.6453 26.0507 30.36 26.52 30.936C26.9893 31.512 27.5653 31.8 28.248 31.8H29.336C29.72 31.8 30.04 31.9493 30.296 32.248C30.5733 32.5467 30.712 32.9307 30.712 33.4C30.712 33.8693 30.5307 34.2533 30.168 34.552C29.8267 34.8507 29.3787 35 28.824 35H28.248ZM21.144 20.888C20.696 20.888 20.3333 20.76 20.056 20.504C19.7787 20.248 19.64 19.928 19.64 19.544C19.64 19.1173 19.7787 18.776 20.056 18.52C20.3333 18.264 20.696 18.136 21.144 18.136H28.536C28.984 18.136 29.3467 18.264 29.624 18.52C29.9013 18.776 30.04 19.1173 30.04 19.544C30.04 19.928 29.9013 20.248 29.624 20.504C29.3467 20.76 28.984 20.888 28.536 20.888H21.144Z" fill="white"/>
<defs>
<linearGradient id="paint0_linear_1321_3779" x1="50" y1="0" x2="0" y2="50" gradientUnits="userSpaceOnUse">
<stop stop-color="#34A853"/>
<stop offset="1" stop-color="#175B32"/>
</linearGradient>
</defs>
</svg>
