<svg class="" width="480" height="480" viewBox="0 0 400 240" fill="none" xmlns="http://www.w3.org/2000/svg">
    <rect x="-0.00285524" y="0.495269" width="179" height="179" rx="15.5" transform="matrix(0.865865 0.500278 -0.871576 0.490261 203.662 29.727)" fill="#3F3F46"></rect>
    <path d="M342.607 106.632C342.607 105.528 343.502 104.632 344.607 104.632L347.903 104.632C349.007 104.632 349.903 105.528 349.903 106.632L349.903 119.848C349.903 120.953 349.007 121.848 347.903 121.848L344.607 121.848C343.502 121.848 342.607 120.953 342.607 119.848L342.607 106.632Z" fill="#3F3F46"></path><path d="M55.6094 103.146L62.6768 103.146L62.6768 117.654L55.6094 117.654L55.6094 103.146Z" fill="#3F3F46"></path><path d="M55.1094 117.654L55.1094 101.654M61.1093 125.654L61.1093 109.654M209.709 202.199L209.709 186.199M350.398 120.228L350.398 104.228M193.917 201.615L193.917 185.615" stroke="#71717A"></path>    <rect x="-0.00285524" y="0.495269" width="179" height="179" rx="15.5" transform="matrix(0.865865 0.500278 -0.871576 0.490261 203.662 29.727)" stroke="#71717A"></rect>
    <g clip-path="url(#bbbclip0_20115_2)">
        <rect width="180" height="180" rx="16" transform="matrix(0.865865 0.500278 -0.871576 0.490261 203.317 13.4731)" fill="#52525B"></rect>
        <path fill-rule="evenodd" clip-rule="evenodd" d="M234.18 84.9722C216.522 74.77 187.824 74.6045 170.05 84.6025C155.815 92.6099 152.939 104.659 161.381 114.397C162.697 115.478 164.261 115.282 165.106 114.807C165.87 114.377 168.363 112.929 171.058 111.413C161.54 107.611 162.921 104.465 164.091 103.078C164.657 102.35 165.954 99.8437 165.36 98.6292C164.844 97.6436 164.734 95.8834 167.451 97.4072C170.008 98.8388 169.433 101.212 169.067 102.101C167.078 106.5 173.039 108.385 175.721 108.972C178.092 107.957 180.338 107.65 182.062 107.729C175.755 103.168 171.099 97.314 183.404 90.3924C186.903 88.4244 191.036 87.5114 195.326 87.4218C195.81 86.7848 197.989 84.2837 204.17 82.8111C204.17 82.8111 207.692 83.8826 209.662 89.7439C212.942 90.814 216.021 92.18 218.738 93.7496C221.454 95.3191 223.809 97.0923 225.642 98.9767C235.936 100.156 237.728 102.2 237.728 102.2C235.062 105.704 230.646 106.912 229.522 107.18C229.308 109.624 227.691 111.945 224.153 113.936C211.807 120.88 201.602 118.102 193.687 114.446C193.84 115.681 192.909 117.343 189.893 119.04C185.59 121.46 182.092 123.383 181.006 123.993C180.161 124.468 179.755 125.38 181.675 126.122C198.562 131.018 219.774 129.518 233.969 121.534C251.743 111.536 251.837 95.1744 234.18 84.9722Z" fill="#3F3F46"></path>
        <path fill-rule="evenodd" clip-rule="evenodd" d="M237.728 102.2C235.062 105.704 230.646 106.912 229.522 107.18C229.308 109.624 227.691 111.945 224.153 113.936C212.327 120.588 202.465 118.319 194.698 114.902C194.357 114.752 194.02 114.6 193.687 114.446C193.727 114.768 193.693 115.119 193.568 115.491C193.213 116.55 192.123 117.786 189.893 119.04C187.029 120.651 184.521 122.041 182.844 122.971C182.002 123.438 181.369 123.789 181.006 123.993C180.161 124.468 179.755 125.38 181.675 126.122C198.562 131.018 219.774 129.518 233.969 121.534C251.743 111.536 251.837 95.1744 234.18 84.9722C216.522 74.77 187.824 74.6045 170.05 84.6025C155.815 92.6099 152.939 104.659 161.381 114.397C162.697 115.478 164.261 115.282 165.106 114.807C165.371 114.657 165.846 114.385 166.465 114.03C167.379 113.505 168.609 112.798 169.949 112.039C170.312 111.834 170.683 111.624 171.058 111.413C170.648 111.249 170.258 111.087 169.887 110.925C161.659 107.343 162.971 104.405 164.091 103.078C164.657 102.35 165.954 99.8437 165.36 98.6292C164.844 97.6436 164.734 95.8834 167.451 97.4072C170.008 98.8388 169.433 101.212 169.067 102.101C167.078 106.5 173.039 108.385 175.721 108.972C177.404 108.252 179.025 107.888 180.44 107.766C181.018 107.716 181.562 107.706 182.062 107.729C181.615 107.406 181.177 107.077 180.752 106.741C175.18 102.334 171.97 96.8239 183.404 90.3924C186.903 88.4244 191.036 87.5114 195.326 87.4218C195.81 86.7848 197.989 84.2837 204.17 82.8111C204.17 82.8111 207.692 83.8826 209.662 89.7439C212.942 90.814 216.021 92.18 218.738 93.7496C221.454 95.3191 223.809 97.0923 225.642 98.9767C232.537 99.7664 235.618 100.944 236.9 101.636C237.045 101.714 237.166 101.785 237.268 101.85C237.612 102.067 237.728 102.2 237.728 102.2ZM226.106 98.0241C231.096 98.6159 234.106 99.4144 235.9 100.096C236.82 100.445 237.429 100.766 237.826 101.019C238.024 101.146 238.17 101.256 238.275 101.345C238.328 101.389 238.37 101.428 238.404 101.461C238.421 101.477 238.435 101.492 238.448 101.506L238.465 101.524L238.473 101.533L238.477 101.537L238.478 101.539C238.479 101.54 238.48 101.541 237.728 102.2L238.48 101.541L239.019 102.155L238.524 102.805C236.031 106.082 232.177 107.479 230.421 107.978C229.936 110.577 228.045 112.894 224.643 114.807C212.538 121.617 202.388 119.342 194.488 115.902C193.987 117.28 192.614 118.656 190.383 119.912C188.229 121.123 186.277 122.21 184.728 123.07C184.213 123.356 183.743 123.616 183.325 123.848C182.485 124.314 181.856 124.662 181.496 124.865C181.476 124.876 181.457 124.887 181.44 124.898C181.556 124.975 181.734 125.07 181.997 125.174C198.665 129.994 219.569 128.486 233.479 120.662C242.186 115.764 246.326 109.449 246.361 103.324C246.397 97.1982 242.33 90.8361 233.68 85.838C225.037 80.8444 213.629 78.2784 202.153 78.2123C190.676 78.1461 179.24 80.5804 170.54 85.474C163.57 89.3948 159.525 94.2238 158.175 99.1167C156.842 103.949 158.085 109.033 162.077 113.673C163.004 114.39 164.074 114.24 164.616 113.935C164.877 113.788 165.345 113.519 165.961 113.166C166.233 113.009 166.535 112.836 166.861 112.65C167.446 112.314 168.105 111.937 168.807 111.538C165.262 109.907 163.418 108.321 162.667 106.777C161.719 104.829 162.625 103.272 163.312 102.451C163.525 102.172 163.935 101.467 164.222 100.69C164.366 100.301 164.463 99.9333 164.498 99.6226C164.533 99.3088 164.495 99.1423 164.464 99.0751C164.295 98.7475 164.155 98.3519 164.097 97.9509C164.043 97.5742 164.036 97.0117 164.36 96.5238C164.745 95.9443 165.385 95.7638 165.998 95.821C166.567 95.874 167.214 96.1277 167.939 96.5347M226.106 98.0241C224.237 96.1577 221.896 94.4194 219.238 92.8837C216.588 91.3527 213.61 90.0152 210.443 88.9493C209.417 86.1386 208.036 84.3926 206.841 83.3318C206.214 82.7747 205.646 82.4134 205.221 82.1873C205.009 82.0743 204.833 81.9952 204.703 81.9423C204.638 81.9159 204.584 81.896 204.544 81.8816C204.523 81.8745 204.506 81.8687 204.492 81.8642L204.474 81.8584L204.467 81.8562L204.464 81.8552L204.463 81.8548C204.462 81.8546 204.462 81.8544 204.17 82.8111L204.462 81.8544L204.202 81.7755L203.939 81.8383C198.327 83.1753 195.805 85.3602 194.846 86.4347C190.595 86.5807 186.461 87.5253 182.914 89.5208C176.696 93.018 174.254 96.5254 174.763 100.087C175.008 101.8 175.927 103.349 177.126 104.726C177.783 105.48 178.541 106.201 179.355 106.89C178.187 107.07 176.926 107.4 175.631 107.926C174.33 107.619 172.518 107.051 171.213 106.145C170.515 105.66 170.041 105.134 169.819 104.577C169.612 104.057 169.578 103.398 169.978 102.513L169.985 102.498L169.992 102.482C170.213 101.945 170.51 100.939 170.344 99.8118C170.17 98.6255 169.492 97.4041 167.94 96.5351" fill="#71717A"></path><path fill-rule="evenodd" clip-rule="evenodd" d="M234.18 82.9717C216.523 72.7695 187.824 72.604 170.05 82.602C155.815 90.6094 152.94 102.658 161.381 112.396C162.698 113.478 164.262 113.281 165.106 112.806C165.87 112.376 168.364 110.928 171.058 109.413C161.54 105.61 162.921 102.465 164.092 101.077C164.657 100.349 165.954 97.8432 165.36 96.6287C164.845 95.6431 164.735 93.8829 167.451 95.4067C170.008 96.8383 169.434 99.2115 169.068 100.101C167.078 104.5 173.04 106.385 175.722 106.972C178.093 105.957 180.339 105.65 182.062 105.728C175.755 101.168 171.099 95.3135 183.405 88.3919C186.903 86.4239 191.037 85.5109 195.326 85.4213C195.811 84.7843 197.99 82.2832 204.171 80.8106C204.171 80.8106 207.692 81.8821 209.662 87.7434C212.943 88.8135 216.021 90.1795 218.738 91.7491C221.455 93.3187 223.809 95.0918 225.642 96.9762C235.937 98.1553 237.729 100.199 237.729 100.199C235.063 103.703 230.647 104.912 229.523 105.179C229.308 107.623 227.692 109.945 224.153 111.935C211.808 118.88 201.603 116.102 193.687 112.445C193.841 113.68 192.909 115.343 189.893 117.039C185.59 119.46 182.092 121.382 181.006 121.993C180.162 122.468 179.756 123.379 181.675 124.122C198.562 129.018 219.774 127.518 233.97 119.533C251.744 109.535 251.838 93.1739 234.18 82.9717Z" fill="#27272A"></path>
        <path fill-rule="evenodd" clip-rule="evenodd" d="M237.729 100.199C235.063 103.703 230.647 104.912 229.523 105.179C229.308 107.623 227.692 109.945 224.153 111.935C212.327 118.587 202.465 116.318 194.699 112.902C194.358 112.752 194.02 112.599 193.687 112.445C193.727 112.767 193.694 113.118 193.568 113.491C193.213 114.549 192.123 115.785 189.893 117.039C187.029 118.651 184.521 120.041 182.844 120.971C182.002 121.438 181.369 121.789 181.006 121.993C180.162 122.468 179.756 123.379 181.675 124.122C198.562 129.018 219.774 127.518 233.97 119.533C251.744 109.535 251.838 93.1739 234.18 82.9717C216.523 72.7695 187.824 72.604 170.05 82.602C155.815 90.6094 152.94 102.658 161.381 112.396C162.698 113.478 164.262 113.281 165.106 112.806C165.372 112.657 165.846 112.385 166.465 112.029C167.38 111.504 168.61 110.798 169.949 110.039C170.312 109.833 170.683 109.624 171.058 109.413C170.648 109.249 170.258 109.086 169.887 108.925C161.659 105.342 162.972 102.405 164.092 101.077C164.657 100.349 165.954 97.8432 165.36 96.6287C164.845 95.6431 164.735 93.8829 167.451 95.4067C170.008 96.8383 169.434 99.2115 169.068 100.101C167.078 104.5 173.04 106.385 175.722 106.972C177.405 106.251 179.025 105.888 180.44 105.765C181.018 105.715 181.562 105.706 182.062 105.728C181.615 105.406 181.177 105.076 180.753 104.74C175.181 100.333 171.971 94.8234 183.405 88.3919C186.903 86.4239 191.037 85.5109 195.326 85.4213C195.811 84.7843 197.99 82.2832 204.171 80.8106C204.171 80.8106 207.692 81.8821 209.662 87.7434C212.943 88.8135 216.021 90.1795 218.738 91.7491C221.455 93.3187 223.809 95.0918 225.642 96.9762C232.537 97.766 235.618 98.9438 236.901 99.6355C237.045 99.7133 237.167 99.785 237.268 99.8493C237.612 100.067 237.729 100.199 237.729 100.199ZM226.107 96.0236C231.096 96.6154 234.106 97.414 235.901 98.095C236.82 98.4442 237.43 98.7657 237.826 99.0189C238.024 99.1456 238.17 99.2558 238.276 99.3444C238.328 99.3887 238.371 99.4276 238.404 99.4605C238.421 99.4769 238.436 99.4918 238.448 99.5051L238.466 99.5239L238.474 99.5324L238.477 99.5364L238.479 99.5383C238.48 99.5393 238.48 99.5402 237.729 100.199L238.48 99.5402L239.019 100.155L238.524 100.805C236.032 104.081 232.177 105.478 230.422 105.978C229.936 108.576 228.045 110.893 224.643 112.807C212.538 119.616 202.389 117.341 194.488 113.901C193.987 115.279 192.615 116.656 190.383 117.911C188.23 119.122 186.278 120.209 184.729 121.069C184.213 121.355 183.743 121.616 183.325 121.848C182.485 122.313 181.857 122.662 181.497 122.864C181.476 122.876 181.458 122.887 181.441 122.898C181.557 122.974 181.734 123.07 181.997 123.174C198.666 127.994 219.569 126.486 233.479 118.661C242.187 113.764 246.327 107.449 246.362 101.323C246.397 95.1977 242.33 88.8356 233.68 83.8376C225.037 78.844 213.63 76.2779 202.153 76.2118C190.677 76.1456 179.24 78.5799 170.541 83.4736C163.57 87.3943 159.526 92.2233 158.176 97.1162C156.843 101.949 158.086 107.032 162.078 111.673C163.004 112.39 164.074 112.239 164.616 111.935C164.878 111.787 165.345 111.519 165.961 111.165C166.234 111.009 166.535 110.836 166.861 110.649C167.446 110.314 168.106 109.936 168.807 109.537C165.263 107.907 163.419 106.32 162.668 104.777C161.72 102.828 162.626 101.271 163.312 100.451C163.525 100.171 163.936 99.467 164.223 98.6895C164.366 98.3006 164.463 97.9328 164.498 97.6221C164.534 97.3083 164.495 97.1419 164.465 97.0746C164.296 96.747 164.155 96.3514 164.098 95.9504C164.043 95.5737 164.037 95.0112 164.361 94.5233C164.746 93.9438 165.385 93.7634 165.999 93.8205C166.567 93.8735 167.214 94.1272 167.94 94.5342M226.107 96.0236C224.237 94.1572 221.896 92.4189 219.238 90.8832C216.589 89.3522 213.61 88.0147 210.443 86.9488C209.418 84.1381 208.036 82.3921 206.842 81.3313C206.215 80.7742 205.647 80.4129 205.222 80.1868C205.009 80.0738 204.833 79.9947 204.703 79.9418C204.638 79.9154 204.585 79.8955 204.544 79.8811C204.524 79.874 204.507 79.8682 204.493 79.8637L204.475 79.8579L204.468 79.8557L204.465 79.8547L204.463 79.8543C204.463 79.8541 204.462 79.8539 204.171 80.8106L204.462 79.8539L204.203 79.775L203.939 79.8378C198.327 81.1748 195.806 83.3597 194.846 84.4342C190.596 84.5802 186.462 85.5248 182.914 87.5203C176.697 91.0176 174.255 94.5249 174.764 98.0869C175.009 99.7995 175.927 101.349 177.127 102.726C177.783 103.479 178.541 104.201 179.355 104.889C178.187 105.069 176.927 105.4 175.632 105.926C174.33 105.619 172.518 105.05 171.213 104.144C170.515 103.66 170.042 103.133 169.82 102.577C169.612 102.056 169.579 101.398 169.979 100.513L169.986 100.497L169.992 100.481C170.213 99.9444 170.511 98.9382 170.345 97.8113C170.17 96.625 169.492 95.4037 167.941 94.5346" fill="#71717A"></path><circle cx="3" cy="3" r="2.5" transform="matrix(0.865865 0.500278 -0.871576 0.490261 203.248 25.3594)" fill="#3F3F46" stroke="#71717A"></circle><circle cx="3" cy="3" r="2.5" transform="matrix(0.865865 0.500278 -0.871576 0.490261 203.248 24.3594)" fill="#18181B" stroke="#71717A"></circle><circle cx="3" cy="3" r="2.5" transform="matrix(0.865865 0.500278 -0.871576 0.490261 333.128 100.401)" fill="#3F3F46" stroke="#71717A"></circle><circle cx="3" cy="3" r="2.5" transform="matrix(0.865865 0.500278 -0.871576 0.490261 333.128 99.4009)" fill="#18181B" stroke="#71717A"></circle><circle cx="3" cy="3" r="2.5" transform="matrix(0.865865 0.500278 -0.871576 0.490261 72.5122 98.8989)" fill="#3F3F46" stroke="#71717A"></circle><circle cx="3" cy="3" r="2.5" transform="matrix(0.865865 0.500278 -0.871576 0.490261 72.512 97.8989)" fill="#18181B" stroke="#71717A"></circle><circle cx="3" cy="3" r="2.5" transform="matrix(0.865865 0.500278 -0.871576 0.490261 202.392 173.94)" fill="#3F3F46" stroke="#71717A"></circle><circle cx="3" cy="3" r="2.5" transform="matrix(0.865865 0.500278 -0.871576 0.490261 202.392 172.941)" fill="#18181B" stroke="#71717A"></circle></g><rect x="-0.00285524" y="0.495269" width="179" height="179" rx="15.5" transform="matrix(0.865865 0.500278 -0.871576 0.490261 203.748 13.727)" stroke="#71717A"></rect><line x1="344.593" y1="127.512" x2="344.593" y2="111.512" stroke="#71717A"></line><defs><clipPath id="bbbclip0_20115_2"><rect width="180" height="180" rx="16" transform="matrix(0.865865 0.500278 -0.871576 0.490261 203.317 13.4731)" fill="#52525B"></rect></clipPath></defs>
</svg>