<svg width="117" height="117" viewBox="0 0 117 117" fill="none" xmlns="http://www.w3.org/2000/svg">
<rect width="116.196" height="116.196" fill="#DAA520"/>
<path d="M22.2065 48.1503C22.2065 35.1058 32.7812 24.5311 45.8258 24.5311H48.247C50.8559 24.5311 52.9708 26.6461 52.9708 29.255V71.0832C52.9708 73.6921 50.8559 75.807 48.247 75.807H45.8258C32.7812 75.807 22.2065 65.2323 22.2065 52.1878V48.1503Z" fill="white"/>
<path d="M93.9893 52.1877C93.9893 65.2322 83.4146 75.8069 70.37 75.8069H67.9488C65.3399 75.8069 63.225 73.6919 63.225 71.083L63.225 29.2548C63.225 26.6459 65.3399 24.531 67.9488 24.531H70.37C83.4146 24.531 93.9893 35.1057 93.9893 48.1502V52.1877Z" fill="white"/>
<ellipse cx="46.5616" cy="85.2934" rx="6.40923" ry="6.40949" fill="white"/>
<ellipse cx="69.6363" cy="85.2934" rx="6.40923" ry="6.40949" fill="white"/>
</svg>
